<svg width="19" height="19" viewBox="0 0 19 19" fill="none" xmlns="http://www.w3.org/2000/svg">
<path d="M9.9298 12.6112L16.2354 5.99329C16.3407 5.88287 16.3994 5.73616 16.3994 5.5836C16.3994 5.43105 16.3407 5.28434 16.2354 5.17392L16.2283 5.16679C16.1773 5.11308 16.1158 5.0703 16.0478 5.04107C15.9797 5.01184 15.9064 4.99677 15.8323 4.99677C15.7582 4.99677 15.6849 5.01184 15.6168 5.04107C15.5487 5.0703 15.4873 5.11308 15.4362 5.16679L9.49874 11.3988L3.56361 5.16679C3.51258 5.11307 3.45116 5.0703 3.38307 5.04107C3.31499 5.01184 3.24167 4.99677 3.16758 4.99677C3.09349 4.99677 3.02017 5.01184 2.95209 5.04107C2.88401 5.0703 2.82258 5.11307 2.77155 5.16679L2.76442 5.17392C2.65916 5.28434 2.60044 5.43104 2.60044 5.5836C2.60044 5.73616 2.65916 5.88287 2.76442 5.99329L9.07005 12.6112C9.1255 12.6694 9.1922 12.7158 9.26609 12.7474C9.33998 12.7791 9.41954 12.7954 9.49993 12.7954C9.58031 12.7954 9.65987 12.7791 9.73376 12.7474C9.80765 12.7158 9.87435 12.6694 9.9298 12.6112Z" fill="white"/>
</svg>
