<svg width="26" height="26" viewBox="0 0 26 26" fill="none" xmlns="http://www.w3.org/2000/svg">
<path d="M17.8499 13.572C20.072 13.572 21.8827 11.5928 21.8827 9.1845C21.8827 6.80365 20.0813 4.91772 17.8499 4.91772C15.6371 4.91772 13.8167 6.8315 13.8167 9.20307C13.826 11.602 15.6371 13.572 17.8499 13.572ZM7.09521 13.7772C9.01829 13.7772 10.5959 12.0501 10.5959 9.93107C10.5959 7.8585 9.03686 6.18754 7.09521 6.18754C5.17214 6.18754 3.58521 7.88682 3.5945 9.94965C3.60379 12.0598 5.17214 13.7772 7.09521 13.7772ZM17.8499 12.1624C16.4868 12.1624 15.3196 10.8555 15.3196 9.20307C15.3196 7.57807 16.4682 6.32775 17.8499 6.32775C19.2409 6.32775 20.3798 7.55997 20.3798 9.18404C20.3798 10.8369 19.2316 12.1624 17.8499 12.1624ZM7.09521 12.3862C5.95632 12.3862 4.9855 11.2942 4.9855 9.94965C4.9855 8.6334 5.94657 7.57854 7.09521 7.57854C8.27125 7.57854 9.21421 8.61482 9.21421 9.93107C9.21421 11.2942 8.24339 12.3862 7.09521 12.3862ZM1.9045 22.3382H9.23325C8.78475 22.0861 8.43932 21.5257 8.50479 20.9565H1.67143C1.48479 20.9565 1.39146 20.8822 1.39146 20.7044C1.39146 18.3894 4.03325 16.2235 7.08639 16.2235C8.26243 16.2235 9.31728 16.5035 10.2231 17.0356C10.5236 16.6552 10.8791 16.3217 11.278 16.0462C10.0736 15.2523 8.62689 14.8418 7.08639 14.8418C3.17432 14.8418 0 17.6795 0 20.7884C0 21.8247 0.634679 22.3382 1.9045 22.3382ZM11.9869 22.3382H23.7129C25.2622 22.3382 26 21.8716 26 20.8446C26 18.3987 22.9097 14.8599 17.8499 14.8599C12.7804 14.8599 9.69057 18.3987 9.69057 20.8446C9.69057 21.8716 10.4279 22.3382 11.9869 22.3382ZM11.5389 20.9286C11.2961 20.9286 11.1935 20.8636 11.1935 20.6672C11.1935 19.136 13.5646 16.2704 17.8499 16.2704C22.126 16.2704 24.4966 19.136 24.4966 20.6672C24.4966 20.8631 24.4038 20.9286 24.1605 20.9286H11.5389Z" fill="white"/>
</svg>
