<svg width="24" height="24" viewBox="0 0 24 24" fill="none" xmlns="http://www.w3.org/2000/svg">
<path d="M16.5 5H20.4C20.5591 5 20.7117 5.06321 20.8243 5.17574C20.9368 5.28826 21 5.44087 21 5.6V20.4C21 20.5591 20.9368 20.7117 20.8243 20.8243C20.7117 20.9368 20.5591 21 20.4 21H3.6C3.44087 21 3.28826 20.9368 3.17574 20.8243C3.06321 20.7117 3 20.5591 3 20.4V5.6C3 5.44087 3.06321 5.28826 3.17574 5.17574C3.28826 5.06321 3.44087 5 3.6 5H7.5" stroke="white" stroke-width="1.5" stroke-linecap="round" stroke-linejoin="round"/>
<path d="M12 8L11 5.5M16.279 6.329L16.484 5.099C16.495 5.03346 16.495 4.96654 16.484 4.901L16.278 3.671C16.2002 3.20435 15.9595 2.7804 15.5986 2.47446C15.2378 2.16852 14.7801 2.00041 14.307 2H9.69404C9.2206 1.99994 8.76249 2.16784 8.40121 2.47381C8.03994 2.77979 7.79892 3.20401 7.72104 3.671L7.51604 4.901C7.50507 4.96654 7.50507 5.03346 7.51604 5.099L7.72104 6.329C7.79892 6.79599 8.03994 7.22021 8.40121 7.52619C8.76249 7.83216 9.2206 8.00006 9.69404 8H14.306C14.7795 8.00006 15.2376 7.83216 15.5989 7.52619C15.9601 7.22021 16.2012 6.79599 16.279 6.329Z" stroke="white" stroke-width="1.5" stroke-linecap="round" stroke-linejoin="round"/>
</svg>
