<svg width="26" height="26" viewBox="0 0 26 26" fill="none" xmlns="http://www.w3.org/2000/svg">
<path d="M3.25 7.3125C3.25 6.23506 3.67801 5.20175 4.43988 4.43988C5.20175 3.67801 6.23506 3.25 7.3125 3.25H18.6875C19.7649 3.25 20.7983 3.67801 21.5601 4.43988C22.322 5.20175 22.75 6.23506 22.75 7.3125V16.25H21.5605L19.3927 13H21.125V7.3125C21.125 6.66603 20.8682 6.04605 20.4111 5.58893C19.954 5.13181 19.334 4.875 18.6875 4.875H7.3125C6.66603 4.875 6.04605 5.13181 5.58893 5.58893C5.13181 6.04605 4.875 6.66603 4.875 7.3125V13H6.60725L4.4395 16.25H3.25V7.3125ZM3.25 18.6875V17.875H8.62225L7.00213 22.7386C5.98132 22.6604 5.02768 22.1996 4.33199 21.4485C3.63631 20.6974 3.24987 19.7113 3.25 18.6875ZM10.335 17.875H15.665L17.29 22.75H8.71L10.335 17.875ZM10.8777 16.25H15.1222L14.04 13H11.96L10.8777 16.25ZM17.3778 17.875H22.75V18.6875C22.7501 19.7113 22.3637 20.6974 21.668 21.4485C20.9723 22.1996 20.0187 22.6604 18.9979 22.7386L17.3778 17.875ZM16.835 16.25H19.6073L17.4395 13H15.7528L16.835 16.25ZM6.39275 16.25H9.165L10.2473 13H8.5605L6.39275 16.25Z" fill="white"/>
</svg>
