<svg width="28" height="28" viewBox="0 0 28 28" fill="none" xmlns="http://www.w3.org/2000/svg">
<path d="M22.2354 23.0588C22.4517 23.0588 22.6659 23.0162 22.8657 22.9335C23.0655 22.8507 23.2471 22.7294 23.4001 22.5764C23.553 22.4235 23.6743 22.2419 23.7571 22.0421C23.8399 21.8422 23.8825 21.6281 23.8825 21.4118V8.23529C23.8825 8.01899 23.8399 7.80481 23.7571 7.60498C23.6743 7.40515 23.553 7.22358 23.4001 7.07064C23.2471 6.91769 23.0655 6.79637 22.8657 6.7136C22.6659 6.63083 22.4517 6.58823 22.2354 6.58824H5.76483C5.54854 6.58823 5.33436 6.63083 5.13452 6.7136C4.93469 6.79637 4.75312 6.91769 4.60017 7.07064C4.44723 7.22358 4.3259 7.40515 4.24313 7.60498C4.16036 7.80481 4.11775 8.01899 4.11775 8.23529V21.4118C4.11775 21.6281 4.16036 21.8423 4.24313 22.0421C4.3259 22.2419 4.44723 22.4235 4.60017 22.5765C4.75312 22.7294 4.93469 22.8507 5.13452 22.9335C5.33436 23.0163 5.54854 23.0589 5.76483 23.0589L22.2354 23.0588ZM22.2354 24.7059H5.76483C5.33224 24.7059 4.90389 24.6207 4.50423 24.4551C4.10457 24.2896 3.74143 24.047 3.43554 23.7411C3.12965 23.4352 2.88701 23.0721 2.72146 22.6724C2.55591 22.2727 2.47071 21.8444 2.4707 21.4118V8.23531C2.4707 7.36166 2.81776 6.52379 3.43552 5.90603C4.05329 5.28827 4.89115 4.94121 5.7648 4.94121H22.2354C22.668 4.94121 23.0963 5.02641 23.496 5.19195C23.8957 5.35749 24.2588 5.60014 24.5647 5.90602C24.8706 6.21191 25.1132 6.57505 25.2788 6.97471C25.4443 7.37437 25.5295 7.80272 25.5295 8.23531V21.4118C25.5295 22.2855 25.1825 23.1233 24.5647 23.7411C23.9469 24.3588 23.1091 24.7059 22.2354 24.7059L22.2354 24.7059ZM18.9413 19.7647C18.7229 19.7647 18.5134 19.6779 18.359 19.5235C18.2045 19.3691 18.1178 19.1596 18.1178 18.9412V10.7059C18.1178 10.4875 18.2045 10.278 18.359 10.1235C18.5134 9.9691 18.7229 9.88234 18.9413 9.88234C19.1597 9.88234 19.3692 9.9691 19.5236 10.1235C19.6781 10.278 19.7648 10.4875 19.7648 10.7059V18.9412C19.7648 19.1596 19.678 19.3691 19.5236 19.5235C19.3692 19.6779 19.1597 19.7647 18.9413 19.7647ZM9.05893 19.7647C8.84052 19.7647 8.63106 19.6779 8.47662 19.5235C8.32218 19.3691 8.23541 19.1596 8.23539 18.9412V10.7059C8.23539 10.4875 8.32216 10.278 8.4766 10.1235C8.63105 9.9691 8.84052 9.88234 9.05893 9.88234C9.27735 9.88234 9.48682 9.9691 9.64126 10.1235C9.79571 10.278 9.88247 10.4875 9.88247 10.7059V18.9412C9.88246 19.1596 9.79569 19.3691 9.64125 19.5235C9.48681 19.6779 9.27735 19.7647 9.05893 19.7647ZM14.0001 18.1176C13.7817 18.1176 13.5722 18.0309 13.4178 17.8764C13.2634 17.722 13.1766 17.5125 13.1766 17.2941V16.4706C13.1766 16.2522 13.2633 16.0427 13.4178 15.8883C13.5722 15.7338 13.7817 15.6471 14.0001 15.6471C14.2185 15.6471 14.428 15.7338 14.5824 15.8883C14.7369 16.0427 14.8237 16.2522 14.8237 16.4706V17.2941C14.8236 17.5125 14.7369 17.722 14.5824 17.8764C14.428 18.0309 14.2185 18.1176 14.0001 18.1176ZM14.0001 14C13.7817 14 13.5722 13.9132 13.4178 13.7588C13.2634 13.6043 13.1766 13.3949 13.1766 13.1765V12.353C13.1766 12.1345 13.2633 11.9251 13.4178 11.7706C13.5722 11.6162 13.7817 11.5294 14.0001 11.5294C14.2185 11.5294 14.428 11.6162 14.5824 11.7706C14.7369 11.9251 14.8237 12.1345 14.8237 12.353V13.1765C14.8236 13.3949 14.7369 13.6043 14.5824 13.7588C14.428 13.9132 14.2185 14 14.0001 14Z" fill="white"/>
</svg>
